<svg width="352" height="140" viewBox="0 0 352 140" fill="none" xmlns="http://www.w3.org/2000/svg">
<g clip-path="url(#clip0_403_137)">
<mask id="mask0_403_137" style="mask-type:alpha" maskUnits="userSpaceOnUse" x="0" y="0" width="352" height="140">
<path d="M0 0H352V140H0V0Z" fill="white"/>
</mask>
<g mask="url(#mask0_403_137)">
<path d="M0 0H352V140H0V0Z" fill="#41CBD3"/>
<g opacity="0.5">
<path d="M34.8431 10.8C34.8431 18.9738 41.5225 25.6 49.7619 25.6C58.0013 25.6 64.6807 18.9738 64.6807 10.8C64.6807 2.62618 58.0013 -4 49.7619 -4C41.5225 -4 34.8431 2.62618 34.8431 10.8Z" fill="url(#paint0_linear_403_137)"/>
<path d="M3.85614 -3.9999C-4.38327 -3.9999 -11.0626 2.62628 -11.0626 10.8001C-11.0626 18.9739 -4.38327 25.6001 3.85614 25.6001C12.0955 25.6001 18.7749 18.9739 18.7749 10.8001C18.7749 2.62628 12.0955 -3.9999 3.85614 -3.9999Z" fill="url(#paint1_linear_403_137)"/>
<path d="M141.572 25.6C149.811 25.6 156.49 18.9738 156.49 10.8C156.49 2.62619 149.811 -4 141.572 -4C133.332 -4 126.653 2.62619 126.653 10.8C126.653 18.9738 133.332 25.6 141.572 25.6Z" fill="url(#paint2_linear_403_137)"/>
<path d="M110.585 10.8001C110.585 2.62628 103.906 -3.9999 95.6666 -3.9999C87.4272 -3.9999 80.7478 2.62628 80.7478 10.8001C80.7478 18.9739 87.4272 25.6001 95.6666 25.6001C103.906 25.6001 110.585 18.9739 110.585 10.8001Z" fill="url(#paint3_linear_403_137)"/>
<path d="M218.462 10.8C218.462 18.9738 225.142 25.6 233.381 25.6C241.62 25.6 248.3 18.9738 248.3 10.8C248.3 2.62617 241.62 -4 233.381 -4C225.142 -4 218.462 2.62617 218.462 10.8Z" fill="url(#paint4_linear_403_137)"/>
<path d="M187.476 -3.9999C179.237 -3.9999 172.557 2.62628 172.557 10.8001C172.557 18.9739 179.237 25.6001 187.476 25.6001C195.716 25.6001 202.395 18.9739 202.395 10.8001C202.395 2.62628 195.716 -3.9999 187.476 -3.9999Z" fill="url(#paint5_linear_403_137)"/>
<path d="M325.192 25.6C333.431 25.6 340.11 18.9738 340.11 10.8C340.11 2.62619 333.431 -4 325.192 -4C316.952 -4 310.273 2.62619 310.273 10.8C310.273 18.9738 316.952 25.6 325.192 25.6Z" fill="url(#paint6_linear_403_137)"/>
<path d="M294.206 10.8011C294.206 2.62724 287.526 -3.99893 279.287 -3.99893C271.048 -3.99893 264.368 2.62724 264.368 10.8011C264.368 18.9749 271.048 25.6011 279.287 25.6011C287.526 25.6011 294.206 18.9749 294.206 10.8011Z" fill="url(#paint7_linear_403_137)"/>
<path d="M34.8431 106.43C34.8431 114.604 41.5225 121.23 49.7619 121.23C58.0013 121.23 64.6807 114.604 64.6807 106.43C64.6807 98.2561 58.0013 91.6299 49.7619 91.6299C41.5225 91.6299 34.8431 98.2561 34.8431 106.43Z" fill="url(#paint8_linear_403_137)"/>
<path d="M3.85614 91.63C-4.38327 91.63 -11.0626 98.2562 -11.0626 106.43C-11.0626 114.604 -4.38327 121.23 3.85614 121.23C12.0955 121.23 18.7749 114.604 18.7749 106.43C18.7749 98.2562 12.0955 91.63 3.85614 91.63Z" fill="url(#paint9_linear_403_137)"/>
<path d="M141.572 121.23C149.811 121.23 156.49 114.604 156.49 106.43C156.49 98.2561 149.811 91.6299 141.572 91.6299C133.332 91.6299 126.653 98.2561 126.653 106.43C126.653 114.604 133.332 121.23 141.572 121.23Z" fill="url(#paint10_linear_403_137)"/>
<path d="M110.585 106.43C110.585 98.2562 103.906 91.63 95.6666 91.63C87.4272 91.63 80.7478 98.2562 80.7478 106.43C80.7478 114.604 87.4272 121.23 95.6666 121.23C103.906 121.23 110.585 114.604 110.585 106.43Z" fill="url(#paint11_linear_403_137)"/>
<path d="M218.462 106.43C218.462 114.604 225.142 121.23 233.381 121.23C241.62 121.23 248.3 114.604 248.3 106.43C248.3 98.2561 241.62 91.6299 233.381 91.6299C225.142 91.6299 218.462 98.2561 218.462 106.43Z" fill="url(#paint12_linear_403_137)"/>
<path d="M187.476 91.63C179.237 91.63 172.557 98.2562 172.557 106.43C172.557 114.604 179.237 121.23 187.476 121.23C195.716 121.23 202.395 114.604 202.395 106.43C202.395 98.2562 195.716 91.63 187.476 91.63Z" fill="url(#paint13_linear_403_137)"/>
<path d="M325.192 121.23C333.431 121.23 340.11 114.604 340.11 106.43C340.11 98.2561 333.431 91.6299 325.192 91.6299C316.952 91.6299 310.273 98.2561 310.273 106.43C310.273 114.604 316.952 121.23 325.192 121.23Z" fill="url(#paint14_linear_403_137)"/>
<path d="M294.206 106.431C294.206 98.2571 287.526 91.631 279.287 91.631C271.048 91.631 264.368 98.2571 264.368 106.431C264.368 114.605 271.048 121.231 279.287 121.231C287.526 121.231 294.206 114.605 294.206 106.431Z" fill="url(#paint15_linear_403_137)"/>
<path d="M64.6805 58.615C64.6805 50.4412 58.0012 43.815 49.7618 43.815C41.5224 43.815 34.843 50.4412 34.843 58.615C34.843 66.7889 41.5224 73.415 49.7618 73.415C58.0012 73.415 64.6805 66.7889 64.6805 58.615Z" fill="url(#paint16_linear_403_137)"/>
<path d="M3.85602 73.4149C12.0954 73.4149 18.7748 66.7888 18.7748 58.6149C18.7748 50.4411 12.0954 43.8149 3.85602 43.8149C-4.38339 43.8149 -11.0627 50.4411 -11.0627 58.6149C-11.0627 66.7888 -4.38339 73.4149 3.85602 73.4149Z" fill="url(#paint17_linear_403_137)"/>
<path d="M141.572 73.4149C149.811 73.4149 156.49 66.7888 156.49 58.6149C156.49 50.4411 149.811 43.8149 141.572 43.8149C133.332 43.8149 126.653 50.4411 126.653 58.6149C126.653 66.7888 133.332 73.4149 141.572 73.4149Z" fill="url(#paint18_linear_403_137)"/>
<path d="M80.7479 58.6149C80.7479 66.7888 87.4273 73.4149 95.6667 73.4149C103.906 73.4149 110.585 66.7888 110.585 58.6149C110.585 50.4411 103.906 43.8149 95.6667 43.8149C87.4273 43.8149 80.7479 50.4411 80.7479 58.6149Z" fill="url(#paint19_linear_403_137)"/>
<path d="M248.3 58.6151C248.3 50.4412 241.621 43.815 233.381 43.815C225.142 43.815 218.462 50.4412 218.462 58.6151C218.462 66.7889 225.142 73.415 233.381 73.415C241.621 73.415 248.3 66.7889 248.3 58.6151Z" fill="url(#paint20_linear_403_137)"/>
<path d="M187.476 73.4149C195.716 73.4149 202.395 66.7888 202.395 58.6149C202.395 50.4411 195.716 43.8149 187.476 43.8149C179.237 43.8149 172.558 50.4411 172.558 58.6149C172.558 66.7888 179.237 73.4149 187.476 73.4149Z" fill="url(#paint21_linear_403_137)"/>
<path d="M325.192 73.4149C333.431 73.4149 340.11 66.7888 340.11 58.6149C340.11 50.4411 333.431 43.8149 325.192 43.8149C316.952 43.8149 310.273 50.4411 310.273 58.6149C310.273 66.7888 316.952 73.4149 325.192 73.4149Z" fill="url(#paint22_linear_403_137)"/>
<path d="M264.368 58.614C264.368 66.7878 271.048 73.414 279.287 73.414C287.526 73.414 294.206 66.7878 294.206 58.614C294.206 50.4402 287.526 43.814 279.287 43.814C271.048 43.814 264.368 50.4402 264.368 58.614Z" fill="url(#paint23_linear_403_137)"/>
<path d="M57.7955 33.57C57.7955 41.7438 64.4749 48.37 72.7143 48.37C80.9537 48.37 87.6331 41.7438 87.6331 33.57C87.6331 25.3962 80.9537 18.77 72.7143 18.77C64.4749 18.77 57.7955 25.3962 57.7955 33.57Z" fill="url(#paint24_linear_403_137)"/>
<path d="M26.8085 18.7701C18.5691 18.7701 11.8898 25.3963 11.8898 33.5701C11.8898 41.7439 18.5691 48.3701 26.8085 48.3701C35.0479 48.3701 41.7273 41.7439 41.7273 33.5701C41.7273 25.3963 35.0479 18.7701 26.8085 18.7701Z" fill="url(#paint25_linear_403_137)"/>
<path d="M164.524 48.37C172.763 48.37 179.443 41.7438 179.443 33.57C179.443 25.3962 172.763 18.77 164.524 18.77C156.285 18.77 149.605 25.3962 149.605 33.57C149.605 41.7438 156.285 48.37 164.524 48.37Z" fill="url(#paint26_linear_403_137)"/>
<path d="M133.538 33.5701C133.538 25.3963 126.858 18.7701 118.619 18.7701C110.38 18.7701 103.7 25.3963 103.7 33.5701C103.7 41.7439 110.38 48.3701 118.619 48.3701C126.858 48.3701 133.538 41.7439 133.538 33.5701Z" fill="url(#paint27_linear_403_137)"/>
<path d="M241.415 33.57C241.415 41.7438 248.094 48.37 256.334 48.37C264.573 48.37 271.252 41.7438 271.252 33.57C271.252 25.3962 264.573 18.77 256.334 18.77C248.094 18.77 241.415 25.3962 241.415 33.57Z" fill="url(#paint28_linear_403_137)"/>
<path d="M210.429 18.7701C202.189 18.7701 195.51 25.3963 195.51 33.5701C195.51 41.7439 202.189 48.3701 210.429 48.3701C218.668 48.3701 225.347 41.7439 225.347 33.5701C225.347 25.3963 218.668 18.7701 210.429 18.7701Z" fill="url(#paint29_linear_403_137)"/>
<path d="M348.144 48.37C356.383 48.37 363.063 41.7438 363.063 33.57C363.063 25.3962 356.383 18.77 348.144 18.77C339.905 18.77 333.225 25.3962 333.225 33.57C333.225 41.7438 339.905 48.37 348.144 48.37Z" fill="url(#paint30_linear_403_137)"/>
<path d="M317.158 33.5711C317.158 25.3973 310.479 18.7711 302.239 18.7711C294 18.7711 287.321 25.3973 287.321 33.5711C287.321 41.7449 294 48.3711 302.239 48.3711C310.479 48.3711 317.158 41.7449 317.158 33.5711Z" fill="url(#paint31_linear_403_137)"/>
<path d="M57.7955 129.2C57.7955 137.374 64.4749 144 72.7143 144C80.9537 144 87.6331 137.374 87.6331 129.2C87.6331 121.026 80.9537 114.4 72.7143 114.4C64.4749 114.4 57.7955 121.026 57.7955 129.2Z" fill="url(#paint32_linear_403_137)"/>
<path d="M26.8085 114.4C18.5691 114.4 11.8898 121.026 11.8898 129.2C11.8898 137.374 18.5691 144 26.8085 144C35.0479 144 41.7273 137.374 41.7273 129.2C41.7273 121.026 35.0479 114.4 26.8085 114.4Z" fill="url(#paint33_linear_403_137)"/>
<path d="M164.524 144C172.763 144 179.443 137.374 179.443 129.2C179.443 121.026 172.763 114.4 164.524 114.4C156.285 114.4 149.605 121.026 149.605 129.2C149.605 137.374 156.285 144 164.524 144Z" fill="url(#paint34_linear_403_137)"/>
<path d="M133.538 129.2C133.538 121.026 126.858 114.4 118.619 114.4C110.38 114.4 103.7 121.026 103.7 129.2C103.7 137.374 110.38 144 118.619 144C126.858 144 133.538 137.374 133.538 129.2Z" fill="url(#paint35_linear_403_137)"/>
<path d="M241.415 129.2C241.415 137.374 248.094 144 256.334 144C264.573 144 271.252 137.374 271.252 129.2C271.252 121.026 264.573 114.4 256.334 114.4C248.094 114.4 241.415 121.026 241.415 129.2Z" fill="url(#paint36_linear_403_137)"/>
<path d="M210.429 114.4C202.189 114.4 195.51 121.026 195.51 129.2C195.51 137.374 202.189 144 210.429 144C218.668 144 225.347 137.374 225.347 129.2C225.347 121.026 218.668 114.4 210.429 114.4Z" fill="url(#paint37_linear_403_137)"/>
<path d="M348.144 144C356.383 144 363.063 137.374 363.063 129.2C363.063 121.026 356.383 114.4 348.144 114.4C339.905 114.4 333.225 121.026 333.225 129.2C333.225 137.374 339.905 144 348.144 144Z" fill="url(#paint38_linear_403_137)"/>
<path d="M317.158 129.201C317.158 121.027 310.479 114.401 302.239 114.401C294 114.401 287.321 121.027 287.321 129.201C287.321 137.375 294 144.001 302.239 144.001C310.479 144.001 317.158 137.375 317.158 129.201Z" fill="url(#paint39_linear_403_137)"/>
<path d="M87.6329 81.3851C87.6329 73.2112 80.9536 66.5851 72.7142 66.5851C64.4748 66.5851 57.7954 73.2112 57.7954 81.3851C57.7954 89.5589 64.4748 96.1851 72.7142 96.1851C80.9536 96.1851 87.6329 89.5589 87.6329 81.3851Z" fill="url(#paint40_linear_403_137)"/>
<path d="M26.8084 96.185C35.0478 96.185 41.7272 89.5588 41.7272 81.385C41.7272 73.2111 35.0478 66.585 26.8084 66.585C18.569 66.585 11.8896 73.2111 11.8896 81.385C11.8896 89.5588 18.569 96.185 26.8084 96.185Z" fill="url(#paint41_linear_403_137)"/>
<path d="M164.524 96.185C172.763 96.185 179.443 89.5588 179.443 81.385C179.443 73.2111 172.763 66.585 164.524 66.585C156.285 66.585 149.605 73.2111 149.605 81.385C149.605 89.5588 156.285 96.185 164.524 96.185Z" fill="url(#paint42_linear_403_137)"/>
<path d="M103.7 81.385C103.7 89.5588 110.38 96.185 118.619 96.185C126.858 96.185 133.538 89.5588 133.538 81.385C133.538 73.2111 126.858 66.585 118.619 66.585C110.38 66.585 103.7 73.2111 103.7 81.385Z" fill="url(#paint43_linear_403_137)"/>
<path d="M271.252 81.3851C271.252 73.2113 264.573 66.5851 256.334 66.5851C248.094 66.5851 241.415 73.2113 241.415 81.3851C241.415 89.5589 248.094 96.1851 256.334 96.1851C264.573 96.1851 271.252 89.5589 271.252 81.3851Z" fill="url(#paint44_linear_403_137)"/>
<path d="M210.429 96.185C218.668 96.185 225.348 89.5588 225.348 81.385C225.348 73.2111 218.668 66.585 210.429 66.585C202.189 66.585 195.51 73.2111 195.51 81.385C195.51 89.5588 202.189 96.185 210.429 96.185Z" fill="url(#paint45_linear_403_137)"/>
<path d="M348.144 96.185C356.383 96.185 363.063 89.5588 363.063 81.385C363.063 73.2111 356.383 66.585 348.144 66.585C339.905 66.585 333.225 73.2111 333.225 81.385C333.225 89.5588 339.905 96.185 348.144 96.185Z" fill="url(#paint46_linear_403_137)"/>
<path d="M287.321 81.384C287.321 89.5578 294 96.184 302.239 96.184C310.479 96.184 317.158 89.5578 317.158 81.384C317.158 73.2102 310.479 66.584 302.239 66.584C294 66.584 287.321 73.2102 287.321 81.384Z" fill="url(#paint47_linear_403_137)"/>
</g>
</g>
</g>
<defs>
<linearGradient id="paint0_linear_403_137" x1="64.4482" y1="10.8" x2="34.8431" y2="10.8" gradientUnits="userSpaceOnUse">
<stop stop-color="#0989B4" stop-opacity="0"/>
<stop offset="0.9994" stop-color="#53FFEE"/>
</linearGradient>
<linearGradient id="paint1_linear_403_137" x1="3.85614" y1="25.3695" x2="3.85614" y2="-3.9999" gradientUnits="userSpaceOnUse">
<stop stop-color="#0989B4" stop-opacity="0"/>
<stop offset="0.9994" stop-color="#53FFEE"/>
</linearGradient>
<linearGradient id="paint2_linear_403_137" x1="141.572" y1="-3.76942" x2="141.572" y2="25.6" gradientUnits="userSpaceOnUse">
<stop stop-color="#0989B4" stop-opacity="0"/>
<stop offset="0.9994" stop-color="#53FFEE"/>
</linearGradient>
<linearGradient id="paint3_linear_403_137" x1="80.9802" y1="10.8001" x2="110.585" y2="10.8001" gradientUnits="userSpaceOnUse">
<stop stop-color="#0989B4" stop-opacity="0"/>
<stop offset="0.9994" stop-color="#53FFEE"/>
</linearGradient>
<linearGradient id="paint4_linear_403_137" x1="248.067" y1="10.8" x2="218.462" y2="10.8" gradientUnits="userSpaceOnUse">
<stop stop-color="#0989B4" stop-opacity="0"/>
<stop offset="0.9994" stop-color="#53FFEE"/>
</linearGradient>
<linearGradient id="paint5_linear_403_137" x1="187.476" y1="25.3695" x2="187.476" y2="-3.9999" gradientUnits="userSpaceOnUse">
<stop stop-color="#0989B4" stop-opacity="0"/>
<stop offset="0.9994" stop-color="#53FFEE"/>
</linearGradient>
<linearGradient id="paint6_linear_403_137" x1="325.192" y1="-3.76942" x2="325.192" y2="25.6" gradientUnits="userSpaceOnUse">
<stop stop-color="#0989B4" stop-opacity="0"/>
<stop offset="0.9994" stop-color="#53FFEE"/>
</linearGradient>
<linearGradient id="paint7_linear_403_137" x1="264.601" y1="10.8011" x2="294.206" y2="10.8011" gradientUnits="userSpaceOnUse">
<stop stop-color="#0989B4" stop-opacity="0"/>
<stop offset="0.9994" stop-color="#53FFEE"/>
</linearGradient>
<linearGradient id="paint8_linear_403_137" x1="64.4482" y1="106.43" x2="34.8431" y2="106.43" gradientUnits="userSpaceOnUse">
<stop stop-color="#0989B4" stop-opacity="0"/>
<stop offset="0.9994" stop-color="#53FFEE"/>
</linearGradient>
<linearGradient id="paint9_linear_403_137" x1="3.85614" y1="120.999" x2="3.85614" y2="91.63" gradientUnits="userSpaceOnUse">
<stop stop-color="#0989B4" stop-opacity="0"/>
<stop offset="0.9994" stop-color="#53FFEE"/>
</linearGradient>
<linearGradient id="paint10_linear_403_137" x1="141.572" y1="91.8605" x2="141.572" y2="121.23" gradientUnits="userSpaceOnUse">
<stop stop-color="#0989B4" stop-opacity="0"/>
<stop offset="0.9994" stop-color="#53FFEE"/>
</linearGradient>
<linearGradient id="paint11_linear_403_137" x1="80.9802" y1="106.43" x2="110.585" y2="106.43" gradientUnits="userSpaceOnUse">
<stop stop-color="#0989B4" stop-opacity="0"/>
<stop offset="0.9994" stop-color="#53FFEE"/>
</linearGradient>
<linearGradient id="paint12_linear_403_137" x1="248.067" y1="106.43" x2="218.462" y2="106.43" gradientUnits="userSpaceOnUse">
<stop stop-color="#0989B4" stop-opacity="0"/>
<stop offset="0.9994" stop-color="#53FFEE"/>
</linearGradient>
<linearGradient id="paint13_linear_403_137" x1="187.476" y1="120.999" x2="187.476" y2="91.63" gradientUnits="userSpaceOnUse">
<stop stop-color="#0989B4" stop-opacity="0"/>
<stop offset="0.9994" stop-color="#53FFEE"/>
</linearGradient>
<linearGradient id="paint14_linear_403_137" x1="325.192" y1="91.8605" x2="325.192" y2="121.23" gradientUnits="userSpaceOnUse">
<stop stop-color="#0989B4" stop-opacity="0"/>
<stop offset="0.9994" stop-color="#53FFEE"/>
</linearGradient>
<linearGradient id="paint15_linear_403_137" x1="264.601" y1="106.431" x2="294.206" y2="106.431" gradientUnits="userSpaceOnUse">
<stop stop-color="#0989B4" stop-opacity="0"/>
<stop offset="0.9994" stop-color="#53FFEE"/>
</linearGradient>
<linearGradient id="paint16_linear_403_137" x1="35.0755" y1="58.615" x2="64.6806" y2="58.615" gradientUnits="userSpaceOnUse">
<stop stop-color="#0989B4" stop-opacity="0"/>
<stop offset="0.9994" stop-color="#53FFEE"/>
</linearGradient>
<linearGradient id="paint17_linear_403_137" x1="3.85602" y1="44.0455" x2="3.85602" y2="73.4149" gradientUnits="userSpaceOnUse">
<stop stop-color="#0989B4" stop-opacity="0"/>
<stop offset="0.9994" stop-color="#53FFEE"/>
</linearGradient>
<linearGradient id="paint18_linear_403_137" x1="141.572" y1="44.0455" x2="141.572" y2="73.4149" gradientUnits="userSpaceOnUse">
<stop stop-color="#0989B4" stop-opacity="0"/>
<stop offset="0.9994" stop-color="#53FFEE"/>
</linearGradient>
<linearGradient id="paint19_linear_403_137" x1="110.353" y1="58.6149" x2="80.7479" y2="58.6149" gradientUnits="userSpaceOnUse">
<stop stop-color="#0989B4" stop-opacity="0"/>
<stop offset="0.9994" stop-color="#53FFEE"/>
</linearGradient>
<linearGradient id="paint20_linear_403_137" x1="218.695" y1="58.615" x2="248.3" y2="58.615" gradientUnits="userSpaceOnUse">
<stop stop-color="#0989B4" stop-opacity="0"/>
<stop offset="0.9994" stop-color="#53FFEE"/>
</linearGradient>
<linearGradient id="paint21_linear_403_137" x1="187.476" y1="44.0455" x2="187.476" y2="73.4149" gradientUnits="userSpaceOnUse">
<stop stop-color="#0989B4" stop-opacity="0"/>
<stop offset="0.9994" stop-color="#53FFEE"/>
</linearGradient>
<linearGradient id="paint22_linear_403_137" x1="325.192" y1="44.0455" x2="325.192" y2="73.4149" gradientUnits="userSpaceOnUse">
<stop stop-color="#0989B4" stop-opacity="0"/>
<stop offset="0.9994" stop-color="#53FFEE"/>
</linearGradient>
<linearGradient id="paint23_linear_403_137" x1="293.973" y1="58.614" x2="264.368" y2="58.614" gradientUnits="userSpaceOnUse">
<stop stop-color="#0989B4" stop-opacity="0"/>
<stop offset="0.9994" stop-color="#53FFEE"/>
</linearGradient>
<linearGradient id="paint24_linear_403_137" x1="87.4006" y1="33.57" x2="57.7955" y2="33.57" gradientUnits="userSpaceOnUse">
<stop stop-color="#0989B4" stop-opacity="0"/>
<stop offset="0.9994" stop-color="#53FFEE"/>
</linearGradient>
<linearGradient id="paint25_linear_403_137" x1="26.8085" y1="48.1395" x2="26.8085" y2="18.7701" gradientUnits="userSpaceOnUse">
<stop stop-color="#0989B4" stop-opacity="0"/>
<stop offset="0.9994" stop-color="#53FFEE"/>
</linearGradient>
<linearGradient id="paint26_linear_403_137" x1="164.524" y1="19.0006" x2="164.524" y2="48.37" gradientUnits="userSpaceOnUse">
<stop stop-color="#0989B4" stop-opacity="0"/>
<stop offset="0.9994" stop-color="#53FFEE"/>
</linearGradient>
<linearGradient id="paint27_linear_403_137" x1="103.933" y1="33.5701" x2="133.538" y2="33.5701" gradientUnits="userSpaceOnUse">
<stop stop-color="#0989B4" stop-opacity="0"/>
<stop offset="0.9994" stop-color="#53FFEE"/>
</linearGradient>
<linearGradient id="paint28_linear_403_137" x1="271.02" y1="33.57" x2="241.415" y2="33.57" gradientUnits="userSpaceOnUse">
<stop stop-color="#0989B4" stop-opacity="0"/>
<stop offset="0.9994" stop-color="#53FFEE"/>
</linearGradient>
<linearGradient id="paint29_linear_403_137" x1="210.429" y1="48.1395" x2="210.429" y2="18.7701" gradientUnits="userSpaceOnUse">
<stop stop-color="#0989B4" stop-opacity="0"/>
<stop offset="0.9994" stop-color="#53FFEE"/>
</linearGradient>
<linearGradient id="paint30_linear_403_137" x1="348.144" y1="19.0006" x2="348.144" y2="48.37" gradientUnits="userSpaceOnUse">
<stop stop-color="#0989B4" stop-opacity="0"/>
<stop offset="0.9994" stop-color="#53FFEE"/>
</linearGradient>
<linearGradient id="paint31_linear_403_137" x1="287.553" y1="33.5711" x2="317.158" y2="33.5711" gradientUnits="userSpaceOnUse">
<stop stop-color="#0989B4" stop-opacity="0"/>
<stop offset="0.9994" stop-color="#53FFEE"/>
</linearGradient>
<linearGradient id="paint32_linear_403_137" x1="87.4006" y1="129.2" x2="57.7955" y2="129.2" gradientUnits="userSpaceOnUse">
<stop stop-color="#0989B4" stop-opacity="0"/>
<stop offset="0.9994" stop-color="#53FFEE"/>
</linearGradient>
<linearGradient id="paint33_linear_403_137" x1="26.8085" y1="143.769" x2="26.8085" y2="114.4" gradientUnits="userSpaceOnUse">
<stop stop-color="#0989B4" stop-opacity="0"/>
<stop offset="0.9994" stop-color="#53FFEE"/>
</linearGradient>
<linearGradient id="paint34_linear_403_137" x1="164.524" y1="114.63" x2="164.524" y2="144" gradientUnits="userSpaceOnUse">
<stop stop-color="#0989B4" stop-opacity="0"/>
<stop offset="0.9994" stop-color="#53FFEE"/>
</linearGradient>
<linearGradient id="paint35_linear_403_137" x1="103.933" y1="129.2" x2="133.538" y2="129.2" gradientUnits="userSpaceOnUse">
<stop stop-color="#0989B4" stop-opacity="0"/>
<stop offset="0.9994" stop-color="#53FFEE"/>
</linearGradient>
<linearGradient id="paint36_linear_403_137" x1="271.02" y1="129.2" x2="241.415" y2="129.2" gradientUnits="userSpaceOnUse">
<stop stop-color="#0989B4" stop-opacity="0"/>
<stop offset="0.9994" stop-color="#53FFEE"/>
</linearGradient>
<linearGradient id="paint37_linear_403_137" x1="210.429" y1="143.769" x2="210.429" y2="114.4" gradientUnits="userSpaceOnUse">
<stop stop-color="#0989B4" stop-opacity="0"/>
<stop offset="0.9994" stop-color="#53FFEE"/>
</linearGradient>
<linearGradient id="paint38_linear_403_137" x1="348.144" y1="114.63" x2="348.144" y2="144" gradientUnits="userSpaceOnUse">
<stop stop-color="#0989B4" stop-opacity="0"/>
<stop offset="0.9994" stop-color="#53FFEE"/>
</linearGradient>
<linearGradient id="paint39_linear_403_137" x1="287.553" y1="129.201" x2="317.158" y2="129.201" gradientUnits="userSpaceOnUse">
<stop stop-color="#0989B4" stop-opacity="0"/>
<stop offset="0.9994" stop-color="#53FFEE"/>
</linearGradient>
<linearGradient id="paint40_linear_403_137" x1="58.0278" y1="81.3851" x2="87.6329" y2="81.3851" gradientUnits="userSpaceOnUse">
<stop stop-color="#0989B4" stop-opacity="0"/>
<stop offset="0.9994" stop-color="#53FFEE"/>
</linearGradient>
<linearGradient id="paint41_linear_403_137" x1="26.8084" y1="66.8155" x2="26.8084" y2="96.185" gradientUnits="userSpaceOnUse">
<stop stop-color="#0989B4" stop-opacity="0"/>
<stop offset="0.9994" stop-color="#53FFEE"/>
</linearGradient>
<linearGradient id="paint42_linear_403_137" x1="164.524" y1="66.8155" x2="164.524" y2="96.185" gradientUnits="userSpaceOnUse">
<stop stop-color="#0989B4" stop-opacity="0"/>
<stop offset="0.9994" stop-color="#53FFEE"/>
</linearGradient>
<linearGradient id="paint43_linear_403_137" x1="133.305" y1="81.385" x2="103.7" y2="81.385" gradientUnits="userSpaceOnUse">
<stop stop-color="#0989B4" stop-opacity="0"/>
<stop offset="0.9994" stop-color="#53FFEE"/>
</linearGradient>
<linearGradient id="paint44_linear_403_137" x1="241.647" y1="81.3851" x2="271.252" y2="81.3851" gradientUnits="userSpaceOnUse">
<stop stop-color="#0989B4" stop-opacity="0"/>
<stop offset="0.9994" stop-color="#53FFEE"/>
</linearGradient>
<linearGradient id="paint45_linear_403_137" x1="210.429" y1="66.8155" x2="210.429" y2="96.185" gradientUnits="userSpaceOnUse">
<stop stop-color="#0989B4" stop-opacity="0"/>
<stop offset="0.9994" stop-color="#53FFEE"/>
</linearGradient>
<linearGradient id="paint46_linear_403_137" x1="348.144" y1="66.8155" x2="348.144" y2="96.185" gradientUnits="userSpaceOnUse">
<stop stop-color="#0989B4" stop-opacity="0"/>
<stop offset="0.9994" stop-color="#53FFEE"/>
</linearGradient>
<linearGradient id="paint47_linear_403_137" x1="316.926" y1="81.384" x2="287.321" y2="81.384" gradientUnits="userSpaceOnUse">
<stop stop-color="#0989B4" stop-opacity="0"/>
<stop offset="0.9994" stop-color="#53FFEE"/>
</linearGradient>
<clipPath id="clip0_403_137">
<path d="M0 19C0 8.50659 8.50659 0 19 0H333C343.493 0 352 8.50659 352 19V140H0V19Z" fill="white"/>
</clipPath>
</defs>
</svg>
